PathFileType	4	(X/Y/Z)	/Users/FranklinZhao/OpenSimProject/Simulation/Models/Rajapogal_2015/marker_data/trc/SN001_0010_10m_01.trc
DataRate	CameraRate	NumFrames	NumMarkers	Units	OrigDataRate	OrigDataStartFrame	OrigNumFrames
200.000000	200.000000	4	72	mm	200.000000	480	641
Frame#	Time	LPSIS			RPSIS			LICR			RICR			LASIS			RASIS			STER			XPRO			C7			T4			T8			T10			RUA1			RUA2			RUA3			RUA4			RHLE			RHME			RTEMP			RHEAD			LHEAD			LTEMP			RACR			LACR			LUA1			LUA2			LUA3			LUA4			LHLE			LHME			LFA1			LFA2			LFA3			LRSP			LUSP			RFA1			RFA2			RFA3			RRSP			RUSP			LTH1			LTH2			LTH3			LTH4			LFLE			LFME			LSK1			LSK2			LSK3			LSK4			LTAM			LFAL			LFCC			LFMT1			LFMT2			LFMT5			RTH1			RTH2			RTH3			RTH4			RFLE			RFME			RSK1			RSK2			RSK3			RSK4			RFAL			RTAM			RFCC			RFMT1			RFMT2			RFMT5			
		X1	Y1	Z1	X2	Y2	Z2	X3	Y3	Z3	X4	Y4	Z4	X5	Y5	Z5	X6	Y6	Z6	X7	Y7	Z7	X8	Y8	Z8	X9	Y9	Z9	X10	Y10	Z10	X11	Y11	Z11	X12	Y12	Z12	X13	Y13	Z13	X14	Y14	Z14	X15	Y15	Z15	X16	Y16	Z16	X17	Y17	Z17	X18	Y18	Z18	X19	Y19	Z19	X20	Y20	Z20	X21	Y21	Z21	X22	Y22	Z22	X23	Y23	Z23	X24	Y24	Z24	X25	Y25	Z25	X26	Y26	Z26	X27	Y27	Z27	X28	Y28	Z28	X29	Y29	Z29	X30	Y30	Z30	X31	Y31	Z31	X32	Y32	Z32	X33	Y33	Z33	X34	Y34	Z34	X35	Y35	Z35	X36	Y36	Z36	X37	Y37	Z37	X38	Y38	Z38	X39	Y39	Z39	X40	Y40	Z40	X41	Y41	Z41	X42	Y42	Z42	X43	Y43	Z43	X44	Y44	Z44	X45	Y45	Z45	X46	Y46	Z46	X47	Y47	Z47	X48	Y48	Z48	X49	Y49	Z49	X50	Y50	Z50	X51	Y51	Z51	X52	Y52	Z52	X53	Y53	Z53	X54	Y54	Z54	X55	Y55	Z55	X56	Y56	Z56	X57	Y57	Z57	X58	Y58	Z58	X59	Y59	Z59	X60	Y60	Z60	X61	Y61	Z61	X62	Y62	Z62	X63	Y63	Z63	X64	Y64	Z64	X65	Y65	Z65	X66	Y66	Z66	X67	Y67	Z67	X68	Y68	Z68	X69	Y69	Z69	X70	Y70	Z70	X71	Y71	Z71	X72	Y72	Z72	

481	2.4	2021.232666015625	233.1381988525391	1017.294738769531	2021.651123046875	153.8386383056641	1022.239807128906	2046.54443359375	324.1680908203125	1075.60986328125	2054.080078125	60.96038055419922	1101.851318359375	2211.251953125	313.0200500488281	993.0927124023438	2212.177978515625	59.56201934814453	996.3564453125	2181.859375	211.7027740478516	1464.507934570312	2245.33203125	212.3013610839844	1257.343383789062	2049.837646484375	199.5066375732422	1564.12353515625	1996.097045898438	201.5445709228516	1451.847045898438	1996.618408203125	196.4143829345703	1319.818603515625	2000.849609375	199.9604034423828	1275.057373046875	2083.95068359375	-49.14513778686523	1351.635986328125	2155.7607421875	-28.80841064453125	1348.283203125	2167.552490234375	-40.18099594116211	1275.969848632812	2096.92529296875	-62.09392166137695	1267.805541992188	2124.907470703125	-60.31599807739258	1180.734375	2102.301025390625	17.69647026062012	1169.415893554688	2214.26123046875	132.1954193115234	1718.758911132812	2257.470947265625	167.9138031005859	1726.72119140625	2256.672607421875	249.8797454833984	1721.873046875	2207.081298828125	287.2648010253906	1706.979248046875	2105.223388671875	22.25939178466797	1519.395751953125	2077.139404296875	390.8412475585938	1518.111083984375	2090.311279296875	445.8472290039062	1356.881958007812	2014.921997070312	441.0948486328125	1348.172485351562	2011.648559570312	455.9682006835938	1262.823120117188	2085.703369140625	459.2392578125	1270.89013671875	2041.574096679688	460.1917114257812	1188.443725585938	2017.139038085938	390.2869262695312	1176.748046875	2157.34619140625	453.6791076660156	979.373046875	2143.0888671875	498.35498046875	981.734375	2141.45556640625	465.5935668945312	950.6509399414062	2126.402587890625	428.0980224609375	914.767578125	2094.278564453125	491.7016296386719	912.9176025390625	2259.68896484375	-99.78225708007812	1036.567749023438	2283.693115234375	-60.73120880126953	1040.875366210938	2280.27490234375	-71.77798461914062	1007.924621582031	2302.251708984375	-42.79334259033203	958.4053955078125	2261.048583984375	-93.13439178466797	949.9232177734375	2279.37548828125	360.3294372558594	738.8773803710938	2233.66357421875	359.0182495117188	717.5756225585938	2272.19921875	342.48388671875	617.8348388671875	2329.160400390625	348.8674621582031	649.776611328125	2335.699951171875	328.9866943359375	548.2359619140625	2330.0751953125	211.1845092773438	539.9341430664062	2253.546630859375	346.8493957519531	390.5906372070312	2201.96923828125	342.0848999023438	426.0211181640625	2152.61376953125	325.7765197753906	355.8356628417969	2207.8798828125	333.3583984375	322.46923828125	2115.5107421875	219.0827941894531	185.3369598388672	2071.024658203125	292.5429382324219	194.1012573242188	2025.66650390625	234.7626800537109	175.6487426757812	2198.613037109375	252.4413757324219	69.81379699707031	2195.5556640625	281.6928100585938	72.50116729736328	2155.121337890625	323.3243713378906	83.42101287841797	2107.9609375	30.03703880310059	741.5743408203125	2163.617431640625	37.20634460449219	719.7142944335938	2159.067138671875	55.12091827392578	634.5712890625	2095.501953125	52.33819198608398	642.1707763671875	2092.05322265625	75.65756225585938	532.8455810546875	2091.0537109375	197.2560272216797	513.3619995117188	2022.455078125	66.78736114501953	357.6012268066406	2079.9267578125	61.08956527709961	372.0600280761719	2078.37939453125	81.50901794433594	265.021240234375	2014.54296875	78.84803009033203	275.6397094726562	2010.278198242188	131.3935394287109	74.67366027832031	2055.064453125	203.2696075439453	95.95827484130859	1978.629760742188	183.7046813964844	49.33646011352539	2175.863525390625	164.9929504394531	32.91130828857422	2179.885986328125	126.6854934692383	29.18156433105469	2134.154052734375	79.76676177978516	19.92181587219238	
482	2.405	2029.180786132812	233.2317047119141	1016.331970214844	2029.387451171875	153.8021697998047	1021.342224121094	2054.788818359375	324.1012573242188	1074.589111328125	2061.306396484375	61.0634880065918	1100.873901367188	2219.398681640625	312.6210632324219	992.2637329101562	2219.405517578125	58.81260681152344	995.4016723632812	2188.826416015625	211.9972076416016	1463.15185546875	2253.029541015625	211.9127044677734	1256.218505859375	2058.4423828125	199.5716400146484	1563.49462890625	2005.40087890625	200.4150085449219	1451.524169921875	2004.8671875	195.9998016357422	1319.234252929688	2008.85888671875	199.5829620361328	1274.617797851562	2093.54931640625	-49.86852645874023	1351.595092773438	2165.35546875	-29.37893486022949	1348.336669921875	2177.362060546875	-40.98727798461914	1276.14501953125	2106.76806640625	-63.29865264892578	1267.796997070312	2135.421875	-61.89324188232422	1180.9873046875	2112.557861328125	15.86500835418701	1168.6982421875	2222.841064453125	132.5661010742188	1718.025024414062	2266.108154296875	168.2786560058594	1725.956176757812	2265.241943359375	250.2919616699219	1720.923095703125	2215.636962890625	287.711669921875	1706.02685546875	2114.351318359375	22.2683219909668	1518.994873046875	2085.52099609375	390.9751892089844	1516.983642578125	2097.3916015625	445.5786743164062	1355.282836914062	2022.02734375	440.3801879882812	1347.2041015625	2018.295654296875	454.9357604980469	1261.82666015625	2092.066650390625	458.2577209472656	1269.201049804688	2047.3037109375	459.0557861328125	1187.239379882812	2022.745361328125	389.3256225585938	1176.188842773438	2158.47509765625	451.7235717773438	975.6198120117188	2145.197265625	496.5564880371094	978.6436157226562	2142.19970703125	463.972412109375	947.3194580078125	2125.06494140625	426.5715637207031	911.3606567382812	2094.376708984375	490.7902221679688	910.7828369140625	2273.244140625	-100.0071411132812	1039.222534179688	2297.131103515625	-60.78411865234375	1044.252563476562	2294.47314453125	-71.76132202148438	1011.093566894531	2316.986083984375	-42.44608688354492	962.1090698242188	2276.37158203125	-93.16128540039062	952.5772094726562	2290.227294921875	359.5346069335938	739.7662353515625	2244.56005859375	358.6009826660156	717.8616333007812	2284.027587890625	342.4868469238281	618.5448608398438	2340.4833984375	348.3620910644531	651.3235473632812	2347.81982421875	328.7660217285156	549.4888916015625	2342	211.0538787841797	541.0223388671875	2269.2998046875	346.7275390625	389.521484375	2217.156982421875	341.7913208007812	423.2432250976562	2169.44580078125	325.5637512207031	351.6522521972656	2225.638427734375	333.1164855957031	319.9710083007812	2137.7451171875	218.645751953125	179.833984375	2093.328125	291.9066467285156	187.2347869873047	2048.193115234375	234.0594482421875	167.3534240722656	2225.0537109375	251.6326446533203	67.8265380859375	2221.623291015625	280.882568359375	70.40208435058594	2180.7158203125	322.6438293457031	79.80432891845703	2112.569091796875	29.89250183105469	741.395751953125	2167.96875	36.75049209594727	719.018310546875	2163.00537109375	54.58692932128906	633.9343872070312	2099.009521484375	52.27109146118164	642.2981567382812	2094.316162109375	75.65742492675781	533.0094604492188	2093.68310546875	197.3190155029297	513.57568359375	2023.559936523438	67.35276794433594	358.1387634277344	2080.713134765625	60.88190460205078	372.947509765625	2079.10107421875	81.81310272216797	265.3069763183594	2015.122192382812	79.65929412841797	276.2377624511719	2010.7578125	132.4096221923828	75.25541687011719	2055.820068359375	203.8989868164062	96.52019500732422	1979.102783203125	185.0174102783203	49.96541213989258	2176.62158203125	164.8321685791016	32.84778594970703	2180.10693359375	126.6221618652344	29.05065536499023	2134.186279296875	80.04396057128906	20.00230598449707	
483	2.41	2037.106567382812	233.5137023925781	1015.302185058594	2037.091918945312	154.0811462402344	1020.255065917969	2062.90478515625	324.0408935546875	1073.388305664062	2068.4072265625	61.03049087524414	1099.95166015625	2227.753173828125	312.2468566894531	991.2333984375	2227.04052734375	58.11372756958008	993.9832763671875	2197.4453125	212.1597747802734	1461.91259765625	2261.44873046875	211.6187133789062	1254.960571289062	2067.06005859375	199.6829681396484	1562.595703125	2013.898803710938	200.1110229492188	1450.625732421875	2012.751220703125	195.6067047119141	1318.552734375	2016.846557617188	199.1256713867188	1273.75634765625	2103.214111328125	-50.55594635009766	1351.498168945312	2174.83544921875	-29.76616859436035	1348.141479492188	2187.152099609375	-41.94175720214844	1276.118041992188	2116.690673828125	-64.52548217773438	1267.703735351562	2145.913818359375	-63.56558990478516	1180.80615234375	2122.488037109375	14.01084327697754	1168.255004882812	2231.69189453125	133.0618591308594	1717.089965820312	2274.932373046875	168.7260589599609	1724.861083984375	2273.888427734375	250.6698150634766	1719.90185546875	2224.187255859375	288.0476989746094	1705.057006835938	2123.43310546875	22.29740142822266	1518.492919921875	2093.969482421875	391.1621398925781	1515.442260742188	2104.579833984375	444.9943542480469	1353.57177734375	2028.684204101562	439.6333618164062	1346.02392578125	2024.84423828125	453.7040710449219	1260.628662109375	2098.276123046875	457.9419860839844	1267.401000976562	2053.046630859375	457.84228515625	1185.832397460938	2028.17236328125	387.9500122070312	1175.504516601562	2159.722900390625	449.578369140625	971.6774291992188	2147.205078125	494.7922668457031	975.3452758789062	2142.787841796875	462.0839538574219	944.0966186523438	2124.381591796875	425.2034301757812	908.6751098632812	2094.577880859375	489.8606567382812	908.7760620117188	2286.607666015625	-100.1864166259766	1041.750732421875	2310.756103515625	-60.70145797729492	1047.207763671875	2308.1396484375	-71.6221923828125	1013.943908691406	2331.45263671875	-42.08548736572266	965.736572265625	2291.663818359375	-93.19553375244141	955.2977294921875	2300.533203125	359.0029296875	740.7249145507812	2255.307861328125	358.5477600097656	718.2394409179688	2295.55810546875	342.8251342773438	619.4514770507812	2351.704833984375	348.018798828125	652.57763671875	2359.708251953125	328.5966491699219	550.7869873046875	2353.766357421875	211.1346435546875	541.9531860351562	2285.015869140625	346.5855102539062	388.065185546875	2231.822998046875	342.11279296875	420.5202941894531	2186.5048828125	324.955322265625	347.3080139160156	2243.389892578125	332.7796936035156	317.3759460449219	2161.26416015625	217.0851745605469	174.7515716552734	2115.14208984375	291.6061401367188	180.6978759765625	2070.930908203125	233.3246917724609	159.1415710449219	2251.554931640625	250.8567199707031	65.94766998291016	2247.777099609375	280.1336059570312	68.29821014404297	2206.334228515625	321.9992065429688	76.12836456298828	2116.833984375	30.25520706176758	741.223876953125	2172.268798828125	36.40980911254883	718.4566040039062	2166.255126953125	54.38348770141602	633.2806396484375	2102.511962890625	52.35321044921875	642.3495483398438	2097.22607421875	75.58879852294922	532.9760131835938	2096.62841796875	197.2503204345703	513.7838745117188	2024.927734375	68.02359771728516	358.5397338867188	2081.6708984375	61.4405517578125	373.0862731933594	2079.870361328125	82.09210205078125	265.523681640625	2016.155883789062	80.18962097167969	276.7564697265625	2011.141967773438	133.2819671630859	75.61967468261719	2055.898193359375	204.7657318115234	96.48050689697266	1979.654052734375	186.1940765380859	50.37790298461914	2176.662109375	165.0303802490234	32.71428298950195	2180.330322265625	126.5248718261719	28.94010543823242	2134.255615234375	80.43357849121094	20.07548141479492	
484	2.415	2045.123657226562	233.6285705566406	1013.917846679688	2044.808227539062	154.0401000976562	1018.87939453125	2070.96728515625	324.0857238769531	1071.995971679688	2075.5859375	61.18799209594727	1098.592529296875	2236.05224609375	311.8077697753906	990.1077270507812	2234.480224609375	57.43935394287109	992.9894409179688	2206.09814453125	212.1725463867188	1460.436645507812	2269.609375	211.4065551757812	1253.568725585938	2075.77294921875	199.8235015869141	1561.428588867188	2022.375366210938	199.8875274658203	1449.57861328125	2020.821899414062	195.1731567382812	1317.588256835938	2024.888427734375	198.9048614501953	1272.79443359375	2112.76611328125	-51.10203170776367	1351.011596679688	2184.79931640625	-30.07587432861328	1347.805908203125	2196.869384765625	-42.99700164794922	1276.137084960938	2126.64990234375	-65.74879455566406	1267.583129882812	2156.860595703125	-64.96440124511719	1180.504760742188	2132.826171875	12.37029457092285	1167.404052734375	2240.419189453125	133.4010467529297	1716.068725585938	2283.479248046875	169.2018127441406	1723.900146484375	2282.5546875	251.1295623779297	1718.7978515625	2232.7705078125	288.43994140625	1703.784912109375	2132.4931640625	22.31348037719727	1517.685302734375	2102.43603515625	391.3047790527344	1514.02783203125	2111.777099609375	444.6586608886719	1351.804565429688	2035.880249023438	439.0419006347656	1344.88134765625	2031.265380859375	452.5723876953125	1259.334716796875	2104.6640625	457.4855346679688	1265.692993164062	2058.837158203125	456.6996459960938	1184.583129882812	2033.853759765625	387.0094909667969	1174.63525390625	2160.867919921875	447.4259338378906	967.9967041015625	2149.208251953125	492.8811340332031	971.9883422851562	2143.5322265625	460.2901916503906	940.6925659179688	2123.62451171875	423.7138977050781	906.0914306640625	2094.7099609375	488.8248901367188	906.9133911132812	2300.154052734375	-100.4184646606445	1044.26220703125	2323.62451171875	-60.76599502563477	1050.290771484375	2321.9755859375	-71.61851501464844	1017.071044921875	2346.262939453125	-41.80112457275391	969.3391723632812	2307.168212890625	-93.21791076660156	958.0777587890625	2310.87841796875	358.984375	741.2858276367188	2265.812744140625	359.0545349121094	718.5225219726562	2307.13720703125	342.5913391113281	619.8954467773438	2362.66064453125	347.7327880859375	653.63427734375	2371.3525390625	328.4170532226562	551.7817993164062	2364.89111328125	210.9826507568359	542.3849487304688	2300.6015625	346.4271240234375	386.7425842285156	2246.430908203125	341.9563293457031	417.3306884765625	2203.590576171875	325.3235473632812	343.2715148925781	2261.181884765625	332.4936218261719	314.71142578125	2183.90771484375	216.2994537353516	169.7906951904297	2136.896240234375	291.1849060058594	173.6002960205078	2093.98291015625	232.7091522216797	150.7494659423828	2278.029541015625	250.2138671875	64.22021484375	2274.06884765625	279.4697875976562	66.25579833984375	2232.08837890625	321.531005859375	72.68210601806641	2121.353515625	30.8475456237793	740.9617919921875	2176.448486328125	36.10088348388672	717.6989135742188	2169.689697265625	54.005126953125	632.6939697265625	2106.01220703125	52.32611846923828	642.3604736328125	2099.74462890625	75.62104797363281	533.0271606445312	2099.4892578125	197.2883605957031	513.9863891601562	2026.063720703125	68.69918823242188	359.0564880371094	2082.837646484375	61.73943328857422	373.4342346191406	2080.400390625	82.385498046875	265.8439331054688	2017.19482421875	80.75721740722656	277.3821105957031	2011.484252929688	134.2441864013672	76.04920959472656	2056.62451171875	205.8290405273438	96.89159393310547	1980.222900390625	187.5643005371094	50.89157867431641	2177.3955078125	164.8970642089844	32.60211181640625	2180.875732421875	126.3281173706055	28.86701393127441	2134.298583984375	80.72898864746094	20.18863487243652	
